<svg width="800" height="800" viewBox="0 0 800 800" fill="none" xmlns="http://www.w3.org/2000/svg">
<path d="M309.728 700V614.69L310.85 554.063C312.198 535.203 319.546 517.427 331.636 503.667C331.813 503.463 331.991 503.263 332.17 503.063C332.637 502.543 332.329 501.703 331.636 501.617C250.851 491.533 166.683 457.423 166.683 308.916C166.157 272.34 178.09 236.883 200.146 209.072C200.917 208.099 201.701 207.135 202.497 206.182C203.534 204.94 203.873 203.257 203.398 201.711C203.369 201.618 203.34 201.524 203.312 201.43C202.773 199.663 202.268 197.889 201.796 196.107C193.688 165.491 195.432 132.788 206.842 103.273C206.926 103.055 207.011 102.837 207.097 102.619C207.523 101.533 208.417 100.703 209.566 100.498C216.73 99.2203 245.679 97.5113 301.099 135.782C302.824 136.973 304.575 138.203 306.351 139.473C307.634 140.389 309.265 140.67 310.781 140.239L310.925 140.198C313.9 139.352 316.883 138.55 319.872 137.79C372.553 124.409 427.447 124.409 480.127 137.79C482.963 138.51 485.79 139.269 488.613 140.066L488.797 140.119C490.58 140.624 492.497 140.294 494.007 139.218C495.66 138.038 497.29 136.893 498.9 135.782C554.19 97.592 582.98 99.2133 590.177 100.49C591.347 100.697 592.26 101.543 592.7 102.649C592.757 102.791 592.81 102.933 592.867 103.075C604.47 132.604 606.313 165.405 598.2 196.107C597.717 197.937 597.197 199.76 596.643 201.574C596.143 203.206 596.503 204.981 597.593 206.292L597.697 206.415C598.427 207.292 599.147 208.178 599.853 209.072C621.91 236.883 633.843 272.34 633.317 308.916C633.317 458.233 548.55 491.45 467.38 500.5C466.91 500.55 466.7 501.113 467.017 501.463C467.137 501.597 467.26 501.73 467.38 501.863C475.57 510.987 481.923 521.813 486.037 533.677C490.337 546.08 492.087 559.323 491.17 572.513V700" stroke="white" stroke-width="66.6667" stroke-linecap="round" stroke-linejoin="round"/>
<path d="M133.333 566.667C145.638 568.41 157.386 572.943 167.688 579.917C177.99 586.893 186.575 596.127 192.793 606.927C198.077 616.54 205.2 625.013 213.755 631.857C222.309 638.7 232.126 643.783 242.643 646.81C253.159 649.84 264.168 650.753 275.037 649.5C285.907 648.25 296.423 644.857 305.982 639.517" stroke="white" stroke-width="66.6667" stroke-linecap="round" stroke-linejoin="round"/>
</svg>
