<svg width="800" height="800" viewBox="0 0 800 800" fill="none" xmlns="http://www.w3.org/2000/svg">
<path d="M145.733 242.133C146.142 238.075 145.595 233.978 144.136 230.17C142.678 226.361 140.348 222.947 137.333 220.2L75.0667 144.633V133.333H268.333L417.733 463.5L549.067 133.333H733.333V144.633L680.1 196C677.844 197.742 676.104 200.063 675.065 202.717C674.026 205.37 673.727 208.256 674.2 211.067V588.867C673.727 591.677 674.026 594.563 675.065 597.217C676.104 599.87 677.844 602.192 680.1 603.933L732.1 655.333V666.667H470.667V655.367L524.5 602.7C529.8 597.367 529.8 595.8 529.8 587.667V282.267L380.067 665.4H359.867L185.533 282.267V539.067C184.1 549.867 187.667 560.733 195.2 568.533L265.233 654.133V665.4H66.6667V654.133L136.667 568.533C140.37 564.668 143.119 559.991 144.693 554.875C146.268 549.759 146.624 544.345 145.733 539.067V242.133Z" fill="white"/>
</svg>
